<svg xmlns="http://www.w3.org/2000/svg" width="1em" height="1em" viewBox="0 0 24 24"><g fill="#353839" fill-opacity="0" stroke="#353839" stroke-linecap="round" stroke-linejoin="round" stroke-width="2"><path stroke-dasharray="64" stroke-dashoffset="64" d="M8 3C8.5 3 10.5 7.5 10.5 8C10.5 9 9 10 8.5 11C8 12 9 13 10 14C10.3943 14.3943 12 16 13 15.5C14 15 15 13.5 16 13.5C16.5 13.5 21 15.5 21 16C21 18 19.5 19.5 18 20C16.5 20.5 15.5 20.5 13.5 20C11.5 19.5 10 19 7.5 16.5C5 14 4.5 12.5 4 10.5C3.5 8.5 3.5 7.5 4 6C4.5 4.5 6 3 8 3Z"><animate fill="freeze" attributeName="stroke-dashoffset" dur="0.6s" values="64;0"/><animate fill="freeze" attributeName="fill-opacity" begin="0.6s" dur="0.15s" values="0;0.3"/></path><path stroke-dasharray="8" stroke-dashoffset="8" d="M15 6h6" opacity="0"><set attributeName="opacity" begin="0.8s" to="1"/><animate fill="freeze" attributeName="stroke-dashoffset" begin="0.8s" dur="0.2s" values="8;0"/></path><path stroke-dasharray="8" stroke-dashoffset="8" d="M18 3v6" opacity="0"><set attributeName="opacity" begin="1s" to="1"/><animate fill="freeze" attributeName="stroke-dashoffset" begin="1s" dur="0.2s" values="8;0"/></path></g></svg>